<svg width="1440" height="1023" viewBox="0 0 1440 1023" fill="none" xmlns="http://www.w3.org/2000/svg">
<g opacity="0.5" clip-path="url(#clip0_41_36)">
<path d="M84.8677 -44.3163L-20.3156 -5.5295C-37.8144 0.923251 -46.7639 20.3258 -40.3047 37.8074L-1.4797 142.887C4.97942 160.369 24.4011 169.309 41.8999 162.856L147.083 124.07C164.582 117.617 173.532 98.2143 167.072 80.7328L128.247 -24.3469C121.788 -41.8284 102.367 -50.769 84.8677 -44.3163Z" stroke="#9F0C63" stroke-width="22" stroke-linecap="round" stroke-linejoin="round"/>
<path d="M1185.87 370.684L1080.68 409.471C1063.19 415.923 1054.24 435.326 1060.7 452.807L1099.52 557.887C1105.98 575.369 1125.4 584.309 1142.9 577.856L1248.08 539.07C1265.58 532.617 1274.53 513.214 1268.07 495.733L1229.25 390.653C1222.79 373.172 1203.37 364.231 1185.87 370.684Z" stroke="#9F0C63" stroke-width="18" stroke-linecap="round" stroke-linejoin="round"/>
<path d="M452.868 884.684L347.684 923.471C330.186 929.923 321.236 949.326 327.695 966.807L366.52 1071.89C372.979 1089.37 392.401 1098.31 409.9 1091.86L515.083 1053.07C532.582 1046.62 541.532 1027.21 535.072 1009.73L496.247 904.653C489.788 887.172 470.367 878.231 452.868 884.684Z" stroke="#9F0C63" stroke-width="18" stroke-linecap="round" stroke-linejoin="round"/>
<path d="M271.313 397.124L234.184 410.815C228.007 413.093 224.848 419.942 227.128 426.113L240.833 463.205C243.113 469.375 249.969 472.531 256.145 470.254L293.274 456.562C299.451 454.285 302.61 447.436 300.33 441.265L286.625 404.173C284.345 398.002 277.489 394.846 271.313 397.124Z" stroke="#9F0C63" stroke-width="10" stroke-linecap="round" stroke-linejoin="round"/>
<path d="M649.587 843.828L631.405 850.533C622.198 853.928 617.49 864.137 620.888 873.335L627.599 891.499C630.998 900.697 641.217 905.401 650.423 902.006L668.606 895.301C677.813 891.906 682.521 881.697 679.123 872.5L672.411 854.335C669.013 845.137 658.794 840.433 649.587 843.828Z" stroke="#9F0C63" stroke-width="7" stroke-miterlimit="10"/>
<path d="M822.816 375.554C844.806 375.554 862.632 357.745 862.632 335.777C862.632 313.809 844.806 296 822.816 296C800.826 296 783 313.809 783 335.777C783 357.745 800.826 375.554 822.816 375.554Z" stroke="#9F0C63" stroke-width="12" stroke-linecap="round" stroke-linejoin="round"/>
<path d="M514.5 316C575.527 316 625 266.527 625 205.5C625 144.473 575.527 95 514.5 95C453.473 95 404 144.473 404 205.5C404 266.527 453.473 316 514.5 316Z" stroke="#9F0C63" stroke-opacity="0.76" stroke-width="23" stroke-linecap="round" stroke-linejoin="round"/>
<path d="M-0.500015 855C60.5275 855 110 805.527 110 744.5C110 683.473 60.5275 634 -0.500015 634C-61.5275 634 -111 683.473 -111 744.5C-111 805.527 -61.5275 855 -0.500015 855Z" stroke="#9F0C63" stroke-opacity="0.76" stroke-width="23" stroke-linecap="round" stroke-linejoin="round"/>
</g>
<defs>
<clipPath id="clip0_41_36">
<rect width="1440" height="1027" fill="white"/>
</clipPath>
</defs>
</svg>
