<svg width="1919" height="1024" viewBox="0 0 1919 1024" fill="none" xmlns="http://www.w3.org/2000/svg">

<style>

    @keyframes jelly {
        0%, 100% {
            transform: scaleY(1);
        }
        50% {
            transform: scaleY(1.1);
        }
    }


    @keyframes rotateAnimate {
        from{
            transform: rotate(0deg);
        }
        to {
            transform: rotate(360deg);
        }
    }
    
    .rueda{
        animation: rotateAnimate 2s linear 1s infinite;
        transform-box: content-box;
        transform-origin: center;
    }

    .bodyCamera {
        animation: jelly 0.5s ease-in-out infinite alternate;
        transform-origin: center;
    }
</style>

<g clip-path="url(#clip0_17_394)">
<g clip-path="url(#clip1_17_394)">
<path d="M753.479 1027.89C775.471 1023.67 786.062 998.29 788.825 976.057C791.588 953.825 790.943 929.42 804.684 911.719C819.916 892.12 847.305 887.773 868.892 875.506C904.127 855.466 923.025 810.431 912.636 771.234C906.411 747.731 890.865 725.683 893.683 701.554C896.17 680.316 911.108 656.26 932.363 653.848C963.951 650.274 1029.5 598.203 1035.14 570.555C1036.58 563.501 1037.59 556.17 1035.97 549.17C1032.08 532.317 1014.97 522.665 1002.82 510.361C988.982 496.362 980.749 476.966 980.289 457.276C979.828 437.531 986.827 418.338 988.154 398.629C989.48 378.92 982.757 356.062 964.504 348.473C948.627 341.879 929.766 349.191 913.521 343.537C895.139 337.145 885.837 315.65 886.463 296.199C887.09 276.748 895.231 258.458 901.64 240.093C908.05 221.711 912.765 201.45 906.521 183.012C894.089 146.284 845.647 134.237 827.063 100.198C818.001 83.5841 817.264 63.8754 813.027 45.4192C808.791 26.963 798.734 1.24954 780.537 -3.96313H-441V1027.93H753.479V1027.89Z" fill="#D390BB"/>
<path d="M722.278 1028C747.733 1012.12 756.426 979.465 759.926 949.681C763.425 919.897 764.402 888.031 781.384 863.312C801.534 833.989 839.127 822.127 864.066 796.745C876.222 784.367 885.137 768.858 889.705 752.133C894.07 736.145 894.586 718.997 901.714 704.04C919.083 667.607 969.293 655.874 986.017 619.127C998.542 591.627 992.243 551.546 1019.21 537.916C1032.47 531.211 1051.53 533.016 1058.81 520.068C1065.73 507.727 1054.94 492.236 1042.19 486.084C1029.45 479.932 1014.57 478.845 1002.35 471.68C970.729 453.113 972.958 407.065 955.479 374.831C948.203 361.403 937.318 350.296 929.14 337.403C913.557 312.813 908.658 283.232 901.143 255.124C893.628 227.016 881.859 197.876 857.767 181.557C843.971 172.218 827.191 167.871 813.764 158.017C787.407 138.658 779.837 103.366 771.346 71.7773C762.873 40.1881 747.53 5.22813 716.126 -3.96313H-441V1028.04H722.278V1028Z" fill="url(#paint0_linear_17_394)"/>
</g>
<path d="M1116.22 506.386L1067.96 541.908C1061.76 546.474 1053 542.047 1053 534.326V478.446C1053 470.742 1061.76 466.298 1067.96 470.864L1116.22 506.386Z" fill="#FAAB3C"/>
<path d="M1256.97 486.297L1302.49 481.332L1302 476.879L1256.48 481.844L1256.97 486.297Z" fill="url(#paint1_linear_17_394)"/>
<path d="M1291.06 484.848L1306.69 483.142C1307.48 483.057 1308.04 482.351 1307.96 481.567L1307.31 475.589C1307.22 474.804 1306.52 474.237 1305.73 474.323L1290.1 476.028C1289.31 476.114 1288.75 476.819 1288.83 477.604L1289.48 483.582C1289.57 484.366 1290.27 484.933 1291.06 484.848Z" fill="url(#paint2_linear_17_394)"/>
<path d="M1178.91 575.477H1211.91V545.969H1178.91V575.477Z" fill="url(#paint3_linear_17_394)"/>
<path d="M1199.63 584.854V792.145C1196.83 792.284 1194.01 792.424 1191.2 792.563V584.854H1199.63Z" fill="url(#paint4_linear_17_394)"/>
<path d="M1199.63 862.386H1191.2V792.546C1194.01 792.406 1196.83 792.267 1199.63 792.127V862.386Z" fill="url(#paint5_linear_17_394)"/>
<path d="M1309.36 829.357H1300.32L1284.75 789.286C1287.74 789.251 1290.74 789.182 1293.73 789.164L1309.36 829.357Z" fill="url(#paint6_linear_17_394)"/>
<path d="M1209.44 572.392L1293.73 789.164C1290.74 789.199 1287.74 789.252 1284.75 789.286L1201.6 575.442L1209.46 572.392H1209.44Z" fill="url(#paint7_linear_17_394)"/>
<g class="pata_one">
    <path d="M1089.82 829.357H1080.78L1092.73 798.629C1095.83 798.419 1098.91 798.21 1102.01 798.001L1089.82 829.357Z" fill="url(#paint8_linear_17_394)"/>
    <path d="M1188.54 575.442L1101.99 798.001C1098.89 798.21 1095.81 798.419 1092.71 798.629L1180.68 572.392L1188.54 575.442Z" fill="url(#paint9_linear_17_394)"/>
</g>


<path d="M1207.73 578.238L1270.56 593.241L1272.03 587.087L1209.2 572.083L1207.73 578.238Z" fill="url(#paint10_linear_17_394)"/>
<path d="M1294.14 529.811H1261.46C1259.63 529.811 1258.14 528.312 1258.14 526.482V512.05C1258.14 510.22 1259.63 508.721 1261.46 508.721H1294.14C1295.96 508.721 1297.46 510.22 1297.46 512.05V526.482C1297.46 528.312 1295.96 529.811 1294.14 529.811Z" fill="url(#paint11_linear_17_394)"/>
<path d="M1245.4 539.886H1279.98C1282.52 539.886 1284.57 537.825 1284.57 535.284V503.266C1284.57 500.725 1282.52 498.665 1279.98 498.665H1245.4C1242.86 498.665 1240.81 500.725 1240.81 503.266V535.284C1240.81 537.825 1242.86 539.886 1245.4 539.886Z" fill="url(#paint12_linear_17_394)"/>
<path d="M1098.06 520.434H1137.37V492.338H1098.06V520.434Z" fill="url(#paint13_linear_17_394)"/>
<path class="bodyCamera" d="M1265.8 561.899H1125.04C1119.45 561.899 1114.9 557.35 1114.9 551.755V468.982C1114.9 463.387 1119.45 458.838 1125.04 458.838H1265.8C1271.39 458.838 1275.94 463.387 1275.94 468.982V551.755C1275.94 557.35 1271.39 561.899 1265.8 561.899Z" fill="url(#paint14_linear_17_394)"/>
<path d="M1275.29 597.629L1253.74 592.483C1252.66 592.225 1251.99 591.133 1252.24 590.048L1254.21 581.825C1254.46 580.74 1255.56 580.069 1256.64 580.328L1278.19 585.473C1279.27 585.732 1279.94 586.824 1279.68 587.909L1277.72 596.132C1277.47 597.217 1276.37 597.888 1275.29 597.629Z" fill="url(#paint15_linear_17_394)"/>
<path d="M1152.28 466.968C1171.46 466.623 1186.73 450.785 1186.38 431.594C1186.04 412.403 1170.21 397.125 1151.03 397.47C1131.86 397.815 1116.59 413.652 1116.93 432.843C1117.28 452.035 1133.1 467.313 1152.28 466.968Z" fill="url(#paint16_linear_17_394)"/>
<path class="rueda" d="M1106.91 454.968C1119.46 479.684 1149.66 489.531 1174.36 476.965C1199.06 464.398 1208.9 434.175 1196.34 409.46C1183.78 384.744 1153.58 374.897 1128.89 387.463C1104.19 400.03 1094.35 430.253 1106.91 454.968ZM1139.96 420.44C1141.37 423.212 1139.25 426.488 1136.15 426.314L1114.31 425.146C1111.68 425.007 1109.9 422.427 1110.67 419.883C1113.04 412.057 1117.6 405.033 1123.78 399.699C1125.78 397.974 1128.87 398.549 1130.07 400.902L1139.98 420.423L1139.96 420.44ZM1167.92 397.869L1155.99 416.222C1154.3 418.837 1150.39 418.628 1148.98 415.856L1139.07 396.335C1137.87 393.982 1139.23 391.159 1141.81 390.549C1149.75 388.684 1158.11 389.137 1165.83 391.838C1168.32 392.71 1169.36 395.673 1167.92 397.886V397.869ZM1189.51 429.173L1167.65 428.005C1164.54 427.831 1162.78 424.362 1164.48 421.748L1176.42 403.394C1177.86 401.181 1180.98 400.937 1182.77 402.854C1185.56 405.817 1187.93 409.163 1189.77 412.806C1191.62 416.449 1192.94 420.336 1193.69 424.327C1194.18 426.924 1192.14 429.295 1189.51 429.155V429.173ZM1163.3 444.005C1161.89 441.234 1164.01 437.957 1167.11 438.131L1188.96 439.299C1191.59 439.439 1193.36 442.018 1192.6 444.563C1190.23 452.389 1185.66 459.413 1179.48 464.746C1177.48 466.472 1174.4 465.897 1173.19 463.544L1163.28 444.023L1163.3 444.005ZM1155.39 439.63C1151.3 441.704 1146.3 440.084 1144.23 435.988C1142.16 431.892 1143.78 426.889 1147.87 424.815C1151.96 422.741 1156.96 424.362 1159.03 428.458C1161.11 432.554 1159.49 437.556 1155.39 439.63ZM1135.33 466.577L1147.26 448.223C1148.95 445.609 1152.85 445.818 1154.26 448.589L1164.17 468.11C1165.37 470.463 1164.01 473.287 1161.44 473.897C1153.49 475.762 1145.13 475.309 1137.42 472.607C1134.93 471.736 1133.88 468.773 1135.33 466.559V466.577ZM1120.47 461.592C1117.69 458.629 1115.32 455.282 1113.47 451.639C1111.62 447.997 1110.3 444.11 1109.55 440.118C1109.06 437.521 1111.1 435.151 1113.73 435.29L1135.59 436.458C1138.71 436.632 1140.47 440.101 1138.76 442.715L1126.83 461.069C1125.38 463.282 1122.27 463.526 1120.47 461.609V461.592Z" fill="url(#paint17_linear_17_394)"/>
<path d="M1147.99 434.07C1149 436.075 1151.46 436.877 1153.46 435.848C1155.46 434.837 1156.26 432.38 1155.24 430.375C1154.21 428.371 1151.77 427.569 1149.77 428.597C1147.76 429.626 1146.96 432.066 1147.99 434.07Z" fill="url(#paint18_linear_17_394)"/>
<path d="M1249.18 465.635C1266.51 465.635 1280.55 451.581 1280.55 434.245C1280.55 416.908 1266.51 402.854 1249.18 402.854C1231.86 402.854 1217.82 416.908 1217.82 434.245C1217.82 451.581 1231.86 465.635 1249.18 465.635Z" fill="url(#paint19_linear_17_394)"/>
<path class="rueda" d="M1203.86 434.245C1203.86 459.291 1224.15 479.597 1249.18 479.597C1274.21 479.597 1294.5 459.291 1294.5 434.245C1294.5 409.198 1274.21 388.893 1249.18 388.893C1224.15 388.893 1203.86 409.198 1203.86 434.245ZM1244.62 419.97C1244.62 422.793 1241.57 424.554 1239.13 423.142L1222.01 413.259C1219.94 412.057 1219.57 409.251 1221.23 407.525C1226.33 402.192 1232.88 398.409 1240.04 396.649C1242.36 396.074 1244.6 397.799 1244.6 400.187V419.97H1244.62ZM1276.37 413.259L1259.25 423.142C1256.81 424.554 1253.76 422.793 1253.76 419.97V400.187C1253.76 397.799 1256.01 396.074 1258.33 396.649C1265.48 398.409 1272.03 402.192 1277.14 407.525C1278.79 409.251 1278.43 412.057 1276.35 413.259H1276.37ZM1280.95 447.299L1263.83 437.399C1261.39 435.988 1261.39 432.467 1263.83 431.072L1280.95 421.172C1283.01 419.987 1285.62 421.05 1286.3 423.351C1287.33 426.872 1287.87 430.55 1287.87 434.245C1287.87 437.94 1287.33 441.617 1286.3 445.138C1285.62 447.421 1283.01 448.502 1280.95 447.317V447.299ZM1253.76 448.52C1253.76 445.696 1256.81 443.935 1259.25 445.347L1276.37 455.23C1278.44 456.433 1278.81 459.239 1277.15 460.964C1272.05 466.298 1265.5 470.08 1258.34 471.84C1256.03 472.416 1253.78 470.69 1253.78 468.302V448.52H1253.76ZM1249.18 441.757C1245.04 441.757 1241.68 438.393 1241.68 434.245C1241.68 430.096 1245.04 426.732 1249.18 426.732C1253.33 426.732 1256.69 430.096 1256.69 434.245C1256.69 438.393 1253.33 441.757 1249.18 441.757ZM1222.01 455.23L1239.13 445.347C1241.57 443.935 1244.62 445.696 1244.62 448.52V468.302C1244.62 470.69 1242.37 472.416 1240.06 471.84C1232.9 470.08 1226.35 466.298 1221.25 460.964C1219.59 459.239 1219.96 456.433 1222.03 455.23H1222.01ZM1212.08 445.138C1211.06 441.617 1210.52 437.94 1210.52 434.245C1210.52 430.55 1211.06 426.872 1212.08 423.351C1212.76 421.068 1215.38 419.987 1217.43 421.172L1234.55 431.072C1236.99 432.484 1236.99 436.005 1234.55 437.399L1217.43 447.299C1215.38 448.485 1212.76 447.421 1212.08 445.121V445.138Z" fill="url(#paint20_linear_17_394)"/>
<path d="M1245.51 434.245C1245.51 436.284 1247.16 437.922 1249.18 437.922C1251.2 437.922 1252.86 436.267 1252.86 434.245C1252.86 432.223 1251.2 430.567 1249.18 430.567C1247.16 430.567 1245.51 432.223 1245.51 434.245Z" fill="url(#paint21_linear_17_394)"/>
<path d="M1177.3 592.105H1213.51C1216.31 592.105 1218.58 589.834 1218.58 587.033V572.828C1218.58 570.026 1216.31 567.756 1213.51 567.756H1177.3C1174.5 567.756 1172.24 570.026 1172.24 572.828V587.033C1172.24 589.834 1174.5 592.105 1177.3 592.105Z" fill="url(#paint22_linear_17_394)"/>
</g>
<defs>
<linearGradient id="paint0_linear_17_394" x1="310.009" y1="1028" x2="310.009" y2="-3.99998" gradientUnits="userSpaceOnUse">
<stop stop-color="#E8378C"/>
<stop offset="1" stop-color="#AB0C63"/>
</linearGradient>
<linearGradient id="paint1_linear_17_394" x1="1304.17" y1="477.451" x2="1280.91" y2="481.349" gradientUnits="userSpaceOnUse">
<stop stop-color="#0B0B0B"/>
<stop offset="1" stop-color="#0E0E0E"/>
</linearGradient>
<linearGradient id="paint2_linear_17_394" x1="1304.35" y1="478.591" x2="1281.08" y2="482.507" gradientUnits="userSpaceOnUse">
<stop stop-color="#0B0B0B"/>
<stop offset="1" stop-color="#0E0E0E"/>
</linearGradient>
<linearGradient id="paint3_linear_17_394" x1="1195.42" y1="604.062" x2="1195.42" y2="568.732" gradientUnits="userSpaceOnUse">
<stop stop-color="#0B0B0B"/>
<stop offset="1" stop-color="#0E0E0E"/>
</linearGradient>
<linearGradient id="paint4_linear_17_394" x1="1195.42" y1="599.216" x2="1195.42" y2="572.793" gradientUnits="userSpaceOnUse">
<stop stop-color="#0B0B0B"/>
<stop offset="1" stop-color="#0E0E0E"/>
</linearGradient>
<linearGradient id="paint5_linear_17_394" x1="1195.42" y1="796.99" x2="1195.42" y2="788.049" gradientUnits="userSpaceOnUse">
<stop stop-color="#E8378C"/>
<stop offset="0.23" stop-color="#D62A80"/>
<stop offset="0.73" stop-color="#B6146B"/>
<stop offset="1" stop-color="#AB0C63"/>
</linearGradient>
<linearGradient id="paint6_linear_17_394" x1="1297.04" y1="794.114" x2="1297.04" y2="788.589" gradientUnits="userSpaceOnUse">
<stop stop-color="#E8378C"/>
<stop offset="0.23" stop-color="#D62A80"/>
<stop offset="0.73" stop-color="#B6146B"/>
<stop offset="1" stop-color="#AB0C63"/>
</linearGradient>
<linearGradient id="paint7_linear_17_394" x1="1247.65" y1="599.112" x2="1247.65" y2="569.307" gradientUnits="userSpaceOnUse">
<stop stop-color="#0B0B0B"/>
<stop offset="1" stop-color="#0E0E0E"/>
</linearGradient>
<linearGradient id="paint8_linear_17_394" x1="1091.39" y1="801.871" x2="1091.39" y2="797.565" gradientUnits="userSpaceOnUse">
<stop stop-color="#E8378C"/>
<stop offset="0.23" stop-color="#D62A80"/>
<stop offset="0.73" stop-color="#B6146B"/>
<stop offset="1" stop-color="#AB0C63"/>
</linearGradient>
<linearGradient id="paint9_linear_17_394" x1="1140.62" y1="600.262" x2="1140.62" y2="569.167" gradientUnits="userSpaceOnUse">
<stop stop-color="#0B0B0B"/>
<stop offset="1" stop-color="#0E0E0E"/>
</linearGradient>
<linearGradient id="paint10_linear_17_394" x1="1239.85" y1="593.587" x2="1239.85" y2="569.656" gradientUnits="userSpaceOnUse">
<stop stop-color="#0B0B0B"/>
<stop offset="1" stop-color="#0E0E0E"/>
</linearGradient>
<linearGradient id="paint11_linear_17_394" x1="1295.58" y1="519.266" x2="1278.9" y2="519.266" gradientUnits="userSpaceOnUse">
<stop stop-color="#0B0B0B"/>
<stop offset="1" stop-color="#0E0E0E"/>
</linearGradient>
<linearGradient id="paint12_linear_17_394" x1="1295.58" y1="519.266" x2="1278.9" y2="519.266" gradientUnits="userSpaceOnUse">
<stop stop-color="#0B0B0B"/>
<stop offset="1" stop-color="#0E0E0E"/>
</linearGradient>
<linearGradient id="paint13_linear_17_394" x1="1058.59" y1="506.386" x2="1106.8" y2="506.386" gradientUnits="userSpaceOnUse">
<stop stop-color="#0B0B0B"/>
<stop offset="1" stop-color="#0E0E0E"/>
</linearGradient>
<linearGradient id="paint14_linear_17_394" x1="1159.49" y1="423.125" x2="1230.1" y2="594.351" gradientUnits="userSpaceOnUse">
<stop stop-color="#0B0B0B"/>
<stop offset="1" stop-color="#0E0E0E"/>
</linearGradient>
<linearGradient id="paint15_linear_17_394" x1="1236.16" y1="400.386" x2="1265.15" y2="583.76" gradientUnits="userSpaceOnUse">
<stop stop-color="#0B0B0B"/>
<stop offset="1" stop-color="#0E0E0E"/>
</linearGradient>
<linearGradient id="paint16_linear_17_394" x1="832.033" y1="35.6627" x2="1549.25" y2="924.214" gradientUnits="userSpaceOnUse">
<stop stop-color="#0B0B0B"/>
<stop offset="1" stop-color="#0E0E0E"/>
</linearGradient>
<linearGradient id="paint17_linear_17_394" x1="1125.97" y1="400.401" x2="1183.54" y2="471.717" gradientUnits="userSpaceOnUse">
<stop stop-color="#E6E6E6"/>
<stop offset="0.53" stop-color="#E5E5E6"/>
<stop offset="0.6" stop-color="#C4C4C4"/>
<stop offset="0.74" stop-color="#8B8B8C"/>
<stop offset="0.85" stop-color="#626262"/>
<stop offset="0.94" stop-color="#494949"/>
<stop offset="1" stop-color="#404040"/>
</linearGradient>
<linearGradient id="paint18_linear_17_394" x1="1114.16" y1="385.763" x2="1198.21" y2="489.879" gradientUnits="userSpaceOnUse">
<stop stop-color="#E6E6E6"/>
<stop offset="0.53" stop-color="#E5E5E6"/>
<stop offset="0.6" stop-color="#C4C4C4"/>
<stop offset="0.74" stop-color="#8B8B8C"/>
<stop offset="0.85" stop-color="#626262"/>
<stop offset="0.94" stop-color="#494949"/>
<stop offset="1" stop-color="#404040"/>
</linearGradient>
<linearGradient id="paint19_linear_17_394" x1="1154.03" y1="-16.1198" x2="1367.69" y2="993.585" gradientUnits="userSpaceOnUse">
<stop stop-color="#0B0B0B"/>
<stop offset="1" stop-color="#0E0E0E"/>
</linearGradient>
<linearGradient id="paint20_linear_17_394" x1="1241.55" y1="398.096" x2="1258.7" y2="479.138" gradientUnits="userSpaceOnUse">
<stop stop-color="#E6E6E6"/>
<stop offset="0.53" stop-color="#E5E5E6"/>
<stop offset="0.6" stop-color="#C4C4C4"/>
<stop offset="0.74" stop-color="#8B8B8C"/>
<stop offset="0.85" stop-color="#626262"/>
<stop offset="0.94" stop-color="#494949"/>
<stop offset="1" stop-color="#404040"/>
</linearGradient>
<linearGradient id="paint21_linear_17_394" x1="1238.04" y1="381.468" x2="1263.08" y2="499.79" gradientUnits="userSpaceOnUse">
<stop stop-color="#E6E6E6"/>
<stop offset="0.53" stop-color="#E5E5E6"/>
<stop offset="0.6" stop-color="#C4C4C4"/>
<stop offset="0.74" stop-color="#8B8B8C"/>
<stop offset="0.85" stop-color="#626262"/>
<stop offset="0.94" stop-color="#494949"/>
<stop offset="1" stop-color="#404040"/>
</linearGradient>
<linearGradient id="paint22_linear_17_394" x1="1195.42" y1="604.062" x2="1195.42" y2="568.732" gradientUnits="userSpaceOnUse">
<stop stop-color="#E8378C"/>
<stop offset="1" stop-color="#AB0C63"/>
</linearGradient>
<clipPath id="clip0_17_394">
<rect width="1919" height="1024" fill="white"/>
</clipPath>
<clipPath id="clip1_17_394">
<rect width="1502" height="1032" fill="white" transform="translate(-441 -4)"/>
</clipPath>
</defs>
</svg>
